<?xml version="1.0" standalone="no"?>
<!DOCTYPE svg PUBLIC "-//W3C//DTD SVG 20010904//EN"
 "http://www.w3.org/TR/2001/REC-SVG-20010904/DTD/svg10.dtd">
<svg version="1.0" xmlns="http://www.w3.org/2000/svg"
 width="1024.000000pt" height="1024.000000pt" viewBox="0 0 1024.000000 1024.000000"
 preserveAspectRatio="xMidYMid meet">

<g transform="translate(0.000000,1024.000000) scale(0.100000,-0.100000)"
fill="#000000" stroke="none">
<path d="M4945 8450 c-128 -8 -184 -16 -365 -56 -451 -98 -830 -300 -1154
-613 -335 -324 -529 -679 -643 -1176 -41 -179 -42 -535 -3 -725 44 -216 144
-467 242 -615 122 -182 189 -265 291 -361 168 -158 393 -304 587 -378 215 -83
438 -132 1121 -246 320 -53 444 -86 569 -151 230 -119 359 -320 360 -560 0
-193 -67 -360 -203 -506 -173 -185 -381 -266 -667 -259 -166 4 -245 22 -369
82 -83 40 -109 60 -191 143 -100 100 -141 165 -197 308 -26 66 -27 77 -32 330
-4 173 -10 266 -17 273 -8 8 -227 13 -761 17 -713 4 -751 4 -768 -13 -17 -17
-17 -34 -11 -231 10 -322 27 -427 112 -681 62 -187 137 -336 268 -532 96 -144
131 -185 266 -321 85 -86 190 -181 232 -213 155 -114 430 -267 603 -336 162
-64 422 -135 605 -165 105 -17 401 -17 560 0 91 9 168 19 171 21 4 2 24 6 45
10 72 10 188 36 229 49 22 7 60 19 85 25 52 14 96 40 67 40 -15 0 -18 7 -15
43 3 41 4 42 41 45 l37 3 0 -41 c0 -45 1 -45 73 -18 l27 10 0 119 0 119 90 0
90 0 0 50 0 49 -87 3 -88 3 0 40 0 40 87 3 87 3 3 145 c2 79 2 149 0 154 -2 6
-23 10 -46 10 -24 0 -64 3 -90 6 l-47 7 3 41 3 41 87 3 87 3 3 92 3 92 93 3
92 3 0 204 0 205 45 0 45 0 0 -205 0 -205 44 0 43 0 7 61 c3 34 6 532 6 1105
l0 1044 -57 1 c-32 1 -64 1 -72 -1 -7 -1 -24 1 -37 4 -22 6 -23 11 -26 99 l-3
92 -86 3 c-100 3 -99 1 -99 114 l0 68 -182 2 -183 3 -3 147 c-3 167 9 146 -97
169 -98 21 -444 76 -535 84 -36 3 -114 15 -175 25 -60 10 -131 21 -156 24 -69
9 -217 42 -274 61 -207 71 -361 225 -410 410 -18 70 -20 271 -4 324 46 147
107 260 185 343 37 39 148 128 160 128 4 0 15 6 23 14 26 22 161 73 240 90
104 24 329 21 431 -5 165 -42 259 -93 371 -201 103 -100 154 -180 206 -326 25
-73 27 -88 31 -299 l4 -223 121 0 c67 0 235 -1 372 -3 l250 -2 3 668 2 667
-45 0 -44 0 -3 -92 -3 -93 -45 0 -45 0 -3 193 -2 192 -45 0 -44 0 -3 -97 -3
-98 -39 -3 c-24 -2 -42 2 -47 10 -5 7 -9 95 -9 194 l0 182 -90 7 -90 7 0 44 0
44 90 0 90 0 0 50 0 50 -90 0 -90 0 0 144 0 144 -119 40 c-167 58 -308 99
-399 116 -42 9 -88 18 -101 20 -119 25 -393 38 -576 26z m1093 -238 l3 -43
-38 3 c-36 3 -38 5 -41 40 -3 38 8 48 53 45 16 -2 21 -10 23 -45z m-384 7 c8
-41 2 -49 -40 -49 -33 0 -34 1 -34 40 0 39 1 40 34 40 29 0 34 -4 40 -31z
m198 -4 c5 -43 3 -45 -39 -45 -32 0 -33 1 -33 40 0 39 1 40 34 40 31 0 34 -3
38 -35z m-194 -203 l3 -43 -43 3 c-39 3 -43 6 -46 31 -5 39 15 59 52 55 29 -3
31 -6 34 -46z m380 0 l3 -43 -38 3 c-36 3 -38 5 -38 38 0 48 3 52 38 48 30 -3
32 -6 35 -46z m-183 -2 c0 -34 -1 -35 -40 -35 -34 0 -40 3 -43 23 -6 42 5 53
45 50 36 -3 38 -5 38 -38z m-385 -190 l0 -40 -40 0 c-39 0 -40 1 -40 34 0 37
9 44 53 45 25 1 27 -2 27 -39z m180 0 c0 -39 -1 -40 -35 -40 -34 0 -35 1 -35
40 0 39 1 40 35 40 34 0 35 -1 35 -40z m210 0 c0 -40 0 -40 -39 -40 -22 0 -41
5 -44 13 -3 9 -2 52 2 65 1 1 19 2 41 2 l40 0 0 -40z m180 0 c0 -39 -1 -40
-35 -40 -34 0 -35 1 -35 40 0 39 1 40 35 40 34 0 35 -1 35 -40z m-582 -192
c-3 -42 -4 -43 -40 -46 -38 -3 -38 -3 -38 36 0 47 4 52 47 52 34 0 34 0 31
-42z m400 -5 c-3 -36 -5 -38 -40 -41 l-38 -3 0 40 0 41 41 0 40 0 -3 -37z
m182 -3 c0 -39 -1 -40 -35 -40 -34 0 -35 1 -35 40 0 39 1 40 35 40 34 0 35 -1
35 -40z m190 0 l0 -40 -46 0 c-43 0 -46 2 -40 23 3 12 6 30 6 40 0 13 9 17 40
17 l40 0 0 -40z m-575 -190 c0 -33 -2 -35 -37 -38 l-38 -3 0 41 0 41 38 -3
c35 -3 37 -5 37 -38z m205 0 l0 -40 -45 0 -45 0 0 40 0 40 45 0 45 0 0 -40z
m180 0 c0 -39 -1 -40 -35 -40 -34 0 -35 1 -35 40 0 39 1 40 35 40 34 0 35 -1
35 -40z m190 -5 l0 -45 -40 0 c-25 0 -40 5 -41 13 -1 6 -3 23 -4 37 -4 36 1
40 46 40 l39 0 0 -45z m-770 -195 l0 -40 -40 0 c-39 0 -40 1 -40 33 0 19 3 37
7 40 3 4 21 7 40 7 32 0 33 -1 33 -40z m398 3 c-3 -36 -5 -38 -40 -41 l-38 -3
0 40 0 41 41 0 40 0 -3 -37z m182 -4 l0 -40 -37 3 c-31 2 -39 7 -41 26 -6 39
5 52 43 52 34 0 35 -1 35 -41z m185 1 c0 -34 -1 -35 -42 -38 l-43 -3 0 41 0
41 43 -3 c41 -3 42 -4 42 -38z m185 0 l0 -40 -40 0 -40 0 0 40 0 40 40 0 40 0
0 -40z m-550 -190 l0 -40 -40 0 -40 0 0 40 0 40 40 0 40 0 0 -40z m370 -1 l0
-40 -42 3 c-36 3 -44 7 -46 26 -6 41 5 52 48 52 l40 0 0 -41z m180 1 l0 -40
-40 0 -40 0 0 40 0 40 40 0 40 0 0 -40z m190 0 l0 -40 -40 0 -40 0 0 40 0 40
40 0 40 0 0 -40z m-560 -100 c0 -39 -1 -40 -35 -40 -34 0 -35 1 -35 40 0 39 1
40 35 40 34 0 35 -1 35 -40z m368 -112 l3 -38 -40 0 c-40 0 -41 1 -41 33 0 42
7 49 45 45 27 -3 30 -7 33 -40z m192 2 l0 -40 -40 0 c-39 0 -40 1 -40 33 0 19
3 37 7 40 3 4 21 7 40 7 32 0 33 -1 33 -40z m-374 -74 c11 -45 2 -61 -36 -61
-31 0 -35 3 -38 28 -5 43 4 57 37 57 24 0 32 -5 37 -24z m184 -136 l0 -40 -40
0 -40 0 0 40 0 40 40 0 40 0 0 -40z m190 -215 c0 -33 -2 -35 -35 -35 -33 0
-35 2 -35 35 0 33 2 35 35 35 33 0 35 -2 35 -35z m-950 -890 c0 -45 0 -45 -35
-45 -35 0 -35 0 -35 45 0 45 0 45 35 45 35 0 35 0 35 -45z m0 -190 c0 -45 0
-45 -35 -45 -35 0 -35 0 -35 45 0 45 0 45 35 45 35 0 35 0 35 -45z m208 -7 l3
-38 -40 0 -41 0 0 41 0 40 38 -3 c35 -3 37 -5 40 -40z m-198 -188 l0 -40 -40
0 -40 0 0 40 0 40 40 0 40 0 0 -40z m194 18 c13 -50 8 -58 -34 -58 l-40 0 0
40 c0 39 1 40 34 40 26 0 35 -5 40 -22z m376 -18 l0 -40 -45 0 -45 0 0 40 0
40 45 0 45 0 0 -40z m-579 -155 c3 -2 3 -20 1 -40 -4 -32 -7 -35 -38 -35 -33
0 -34 1 -34 40 0 39 1 40 33 40 19 0 36 -2 38 -5z m207 -37 l3 -38 -40 0 -41
0 0 41 0 40 38 -3 c35 -3 37 -5 40 -40z m182 2 c0 -39 -1 -40 -35 -40 -34 0
-35 1 -35 40 0 39 1 40 35 40 34 0 35 -1 35 -40z m190 -1 l0 -40 -42 3 c-36 3
-44 7 -46 26 -6 41 5 52 48 52 l40 0 0 -41z m188 -1 l3 -38 -45 0 -46 0 0 41
0 40 43 -3 c41 -3 42 -4 45 -40z m-768 -193 c0 -45 0 -45 -35 -45 -35 0 -35 0
-35 45 0 45 0 45 35 45 35 0 35 0 35 -45z m566 35 c10 0 14 -12 14 -40 l0 -40
-40 0 c-40 0 -40 0 -40 39 0 39 12 53 38 45 8 -2 20 -4 28 -4z m178 4 c11 -4
16 -19 16 -45 0 -39 0 -39 -40 -39 -40 0 -40 0 -40 39 0 33 4 40 23 44 12 2
23 5 24 6 1 0 8 -2 17 -5z m-542 -21 c2 -10 2 -28 0 -41 -4 -20 -10 -23 -41
-20 -34 3 -36 5 -39 41 l-3 37 40 0 c30 0 40 -4 43 -17z m188 -23 c0 -39 -1
-40 -34 -40 -38 0 -53 22 -41 60 5 15 15 20 41 20 33 0 34 -1 34 -40z m560 0
l0 -40 -40 0 -40 0 0 40 0 40 40 0 40 0 0 -40z m-950 -196 c0 -45 0 -45 -32
-42 -30 3 -33 6 -36 40 -3 37 4 44 51 47 14 1 17 -7 17 -45z m208 -1 l3 -43
-40 0 -41 0 0 46 0 45 38 -3 c36 -3 37 -4 40 -45z m742 -3 l0 -40 -40 0 -40 0
0 40 0 40 40 0 40 0 0 -40z m-375 -115 c0 -39 -1 -40 -37 -43 l-38 -3 0 46 0
46 38 -3 c36 -3 37 -4 37 -43z m180 0 c0 -39 -1 -40 -35 -40 -31 0 -35 3 -38
28 -5 46 4 59 40 55 31 -3 33 -5 33 -43z m-365 -205 c0 -39 -1 -40 -35 -40
-34 0 -35 1 -35 40 0 39 1 40 35 40 34 0 35 -1 35 -40z m368 -2 l3 -38 -40 0
c-40 0 -41 1 -41 33 0 42 7 49 45 45 27 -3 30 -7 33 -40z m190 0 c-3 -42 -4
-43 -38 -43 -34 0 -35 1 -38 43 l-3 42 41 0 41 0 -3 -42z m-558 -199 c0 -38
-1 -39 -35 -39 -34 0 -35 1 -35 39 0 36 3 40 28 43 38 5 42 2 42 -43z m185 5
c0 -38 -1 -39 -37 -42 l-38 -3 0 40 c0 42 9 50 50 46 22 -2 25 -7 25 -41z
m375 1 l0 -45 -40 0 -40 0 0 45 0 45 40 0 40 0 0 -45z m-375 -190 l0 -40 -40
0 c-36 0 -40 2 -43 28 -6 47 4 59 45 55 37 -3 38 -4 38 -43z m185 5 l0 -40
-40 0 c-39 0 -40 1 -40 33 0 42 5 47 47 47 32 0 33 -1 33 -40z m190 0 l0 -40
-40 0 c-39 0 -40 1 -40 33 0 42 5 47 47 47 32 0 33 -1 33 -40z m0 -205 l0 -45
-40 0 -40 0 0 45 0 45 40 0 40 0 0 -45z m-370 -395 l0 -40 -45 0 -45 0 0 40 0
40 45 0 45 0 0 -40z m370 0 l0 -40 -40 0 -40 0 0 40 0 40 40 0 40 0 0 -40z
m-192 -97 l3 -43 -40 0 -41 0 0 46 0 45 38 -3 c36 -3 37 -4 40 -45z m-368
-193 c0 -39 -1 -40 -35 -40 -34 0 -35 1 -35 40 0 39 1 40 35 40 34 0 35 -1 35
-40z m190 -10 l0 -40 -40 0 -40 0 0 40 0 40 40 0 40 0 0 -40z m-370 -90 l0
-40 -40 0 -40 0 0 40 0 40 40 0 40 0 0 -40z m550 0 l0 -40 -40 0 -40 0 0 40 0
40 40 0 40 0 0 -40z m-750 -200 l0 -40 -40 0 -40 0 0 40 0 40 40 0 40 0 0 -40z
m190 -1 l0 -40 -37 3 c-31 2 -39 7 -41 26 -6 39 5 52 43 52 34 0 35 -1 35 -41z
m190 1 l0 -40 -40 0 c-39 0 -40 1 -40 33 0 42 5 47 47 47 32 0 33 -1 33 -40z
m190 0 l0 -40 -40 0 -40 0 0 40 0 40 40 0 40 0 0 -40z m-376 -182 c3 -13 6
-33 6 -45 0 -20 -5 -23 -40 -23 -40 0 -40 0 -40 38 0 46 5 52 41 52 19 0 28
-6 33 -22z m186 -23 c0 -45 0 -45 -35 -45 -35 0 -35 0 -35 45 0 45 0 45 35 45
35 0 35 0 35 -45z m-590 -16 c0 -16 -5 -20 -27 -17 -31 4 -42 24 -16 31 35 9
43 7 43 -14z m5 -184 c0 -38 -2 -40 -30 -40 -27 0 -30 4 -33 34 -4 37 10 53
43 49 16 -3 20 -11 20 -43z m200 0 c0 -39 -1 -40 -37 -43 l-38 -3 0 46 0 46
38 -3 c36 -3 37 -4 37 -43z m200 0 c0 -39 -1 -40 -37 -43 l-38 -3 0 46 0 46
38 -3 c36 -3 37 -4 37 -43z m185 0 c0 -45 0 -45 -35 -45 -35 0 -35 0 -35 45 0
45 0 45 35 45 35 0 35 0 35 -45z m190 0 l0 -45 -40 0 -40 0 0 45 0 45 40 0 40
0 0 -45z m-572 -202 c-3 -36 -5 -38 -40 -41 l-38 -3 0 40 0 41 41 0 40 0 -3
-37z m200 -5 l3 -38 -45 0 c-45 0 -46 0 -46 33 0 43 6 49 50 45 33 -3 35 -5
38 -40z m182 2 c0 -39 -1 -40 -35 -40 -34 0 -35 1 -35 40 0 39 1 40 35 40 34
0 35 -1 35 -40z m-382 -187 c-3 -36 -5 -38 -40 -41 l-38 -3 0 40 0 41 41 0 40
0 -3 -37z m192 -3 l0 -40 -40 0 -40 0 0 40 0 40 40 0 40 0 0 -40z m190 0 l0
-40 -40 0 -40 0 0 40 0 40 40 0 40 0 0 -40z m-580 -200 c0 -39 -1 -40 -35 -40
-34 0 -35 1 -35 40 0 39 1 40 35 40 34 0 35 -1 35 -40z m194 18 c-1 -10 -2
-27 -3 -38 -1 -16 -8 -20 -35 -20 -31 0 -34 3 -38 35 -5 44 -2 47 42 43 26 -2
35 -7 34 -20z m196 -18 c0 -39 -1 -40 -35 -40 -34 0 -35 1 -35 40 0 39 1 40
35 40 34 0 35 -1 35 -40z"/>
<path d="M6230 8125 l0 -65 45 0 45 0 0 49 c0 48 -1 49 -40 65 -22 9 -43 16
-45 16 -3 0 -5 -29 -5 -65z"/>
<path d="M6420 8092 c0 -26 20 -42 52 -42 40 0 35 16 -12 40 -38 19 -40 19
-40 2z"/>
<path d="M6427 7954 c-4 -4 -7 -27 -7 -51 l0 -44 43 3 42 3 0 45 c0 44 -1 45
-35 48 -20 2 -39 0 -43 -4z"/>
<path d="M6612 7908 c3 -46 17 -55 62 -44 32 8 23 52 -15 71 -44 23 -50 19
-47 -27z"/>
<path d="M6420 7715 l0 -45 45 0 45 0 0 45 0 45 -45 0 -45 0 0 -45z"/>
<path d="M6610 7715 l0 -45 40 0 40 0 0 45 0 45 -40 0 -40 0 0 -45z"/>
<path d="M6792 7719 l3 -44 43 -3 c23 -2 42 0 42 3 0 21 -32 75 -44 75 -8 0
-22 3 -31 6 -14 6 -16 0 -13 -37z"/>
<path d="M6610 7521 l0 -51 43 0 43 0 0 48 -1 47 -42 3 -43 3 0 -50z"/>
<path d="M6800 7520 l0 -50 40 0 40 0 0 50 0 50 -40 0 -40 0 0 -50z"/>
<path d="M6990 7519 l0 -49 45 0 c25 0 45 2 45 5 0 3 -9 23 -20 44 -13 26 -28
40 -45 43 -24 5 -25 3 -25 -43z"/>
<path d="M6800 7320 l0 -50 40 0 40 0 0 50 0 50 -40 0 -40 0 0 -50z"/>
<path d="M6992 7318 c3 -43 3 -43 46 -46 l42 -3 0 45 0 46 -46 0 -45 0 3 -42z"/>
<path d="M6798 7169 c-2 -6 -2 -26 0 -45 4 -32 6 -34 43 -34 l39 0 0 45 0 45
-39 0 c-22 0 -41 -5 -43 -11z"/>
<path d="M6992 7138 c3 -43 3 -43 46 -46 l42 -3 0 45 0 46 -46 0 -45 0 3 -42z"/>
<path d="M7208 7173 c-25 -4 -28 -8 -28 -44 l0 -39 45 0 45 0 0 45 c0 48 1 47
-62 38z"/>
<path d="M6799 6978 c-2 -27 3 -63 11 -72 4 -4 22 -5 39 -1 28 6 31 10 31 46
0 39 0 39 -40 39 -25 0 -40 -5 -41 -12z"/>
<path d="M6990 6945 l0 -45 45 0 45 0 0 45 0 45 -45 0 -45 0 0 -45z"/>
<path d="M7187 6958 c1 -18 2 -39 2 -45 1 -8 16 -13 41 -13 l40 0 0 45 0 45
-42 0 c-42 0 -43 -1 -41 -32z"/>
<path d="M6797 6711 c-2 -10 -2 -31 0 -46 5 -23 9 -26 42 -23 35 3 36 5 39 46
l3 42 -39 0 c-31 0 -41 -4 -45 -19z"/>
<path d="M6997 6723 c-4 -3 -7 -24 -7 -45 l0 -38 45 0 45 0 0 45 0 45 -38 0
c-21 0 -42 -3 -45 -7z"/>
<path d="M7186 6714 c-3 -9 -6 -29 -6 -45 0 -28 2 -29 44 -29 l44 0 4 45 3 45
-41 0 c-29 0 -44 -5 -48 -16z"/>
<path d="M7380 6685 l0 -45 45 0 45 0 0 45 0 45 -45 0 -45 0 0 -45z"/>
<path d="M6839 6542 c-40 -3 -50 -20 -42 -66 5 -22 11 -26 39 -26 39 0 47 12
42 61 -3 32 -5 34 -39 31z"/>
<path d="M6990 6495 l0 -45 45 0 45 0 0 45 0 45 -45 0 -45 0 0 -45z"/>
<path d="M7182 6498 c3 -43 3 -43 46 -46 l42 -3 0 45 0 46 -46 0 -45 0 3 -42z"/>
<path d="M7380 6495 l0 -45 45 0 45 0 0 45 0 45 -45 0 -45 0 0 -45z"/>
<path d="M6807 6353 c-4 -3 -7 -24 -7 -45 0 -38 0 -38 40 -38 l40 0 0 45 c0
44 0 45 -33 45 -19 0 -37 -3 -40 -7z"/>
<path d="M6997 6353 c-4 -3 -7 -24 -7 -45 l0 -38 45 0 45 0 0 45 0 45 -38 0
c-21 0 -42 -3 -45 -7z"/>
<path d="M7188 6353 c-2 -5 -3 -24 -3 -43 0 -34 2 -35 43 -38 l42 -3 0 45 0
46 -39 0 c-22 0 -41 -3 -43 -7z"/>
<path d="M7380 6315 l0 -45 45 0 45 0 0 45 0 45 -45 0 -45 0 0 -45z"/>
<path d="M7385 6152 c-3 -3 -5 -29 -5 -59 l0 -53 45 0 45 0 0 55 c0 45 -3 55
-17 56 -10 0 -28 2 -41 3 -12 2 -24 0 -27 -2z"/>
<path d="M6800 6100 l0 -50 40 0 40 0 0 50 0 50 -40 0 -40 0 0 -50z"/>
<path d="M6990 6100 l0 -50 45 0 45 0 0 50 0 50 -45 0 -45 0 0 -50z"/>
<path d="M7187 6143 c-4 -3 -7 -26 -7 -50 l0 -43 45 0 45 0 0 50 0 50 -38 0
c-21 0 -42 -3 -45 -7z"/>
<path d="M6050 5450 l0 -91 43 3 42 3 3 71 c3 78 -2 87 -55 99 l-33 7 0 -92z"/>
<path d="M6232 5425 l3 -57 43 -2 42 -2 0 48 c0 44 -2 48 -27 54 -16 3 -36 8
-46 11 -16 4 -18 -1 -15 -52z"/>
<path d="M6420 5395 c0 -34 1 -35 40 -35 39 0 40 1 40 35 0 34 -1 35 -40 35
-39 0 -40 -1 -40 -35z"/>
<path d="M6420 5220 l0 -40 45 0 45 0 0 40 0 40 -45 0 -45 0 0 -40z"/>
<path d="M6610 5215 c0 -44 0 -45 34 -45 35 0 46 15 46 68 0 19 -5 22 -40 22
l-40 0 0 -45z"/>
<path d="M6790 5206 c0 -35 1 -36 41 -36 36 0 40 2 29 15 -7 9 -26 25 -42 36
l-28 20 0 -35z"/>
<path d="M6610 5035 l0 -45 40 0 40 0 0 45 0 45 -40 0 -40 0 0 -45z"/>
<path d="M6800 5035 l0 -45 40 0 40 0 0 45 0 45 -40 0 -40 0 0 -45z"/>
<path d="M6986 5038 c1 -18 2 -36 3 -40 1 -11 71 -10 71 0 0 9 -62 72 -71 72
-3 0 -4 -15 -3 -32z"/>
<path d="M6818 4892 c-14 -3 -18 -14 -18 -48 l0 -44 40 0 40 0 0 44 c0 37 -3
44 -22 48 -13 2 -31 2 -40 0z"/>
<path d="M6990 4845 l0 -45 45 0 45 0 0 45 0 45 -45 0 -45 0 0 -45z"/>
<path d="M6990 4660 l0 -50 45 0 45 0 0 44 c0 48 -9 56 -61 56 -28 0 -29 -1
-29 -50z"/>
<path d="M7208 4703 c-26 -4 -28 -8 -28 -49 l0 -44 40 0 40 0 0 50 c0 34 -4
50 -12 49 -7 -1 -25 -4 -40 -6z"/>
<path d="M6800 4655 l0 -45 40 0 40 0 0 45 0 45 -40 0 -40 0 0 -45z"/>
<path d="M6800 4475 l0 -45 40 0 40 0 0 45 0 45 -40 0 -40 0 0 -45z"/>
<path d="M6990 4475 l0 -45 45 0 45 0 0 45 0 45 -45 0 -45 0 0 -45z"/>
<path d="M7180 4475 l0 -45 43 0 44 0 1 45 2 45 -45 0 -45 0 0 -45z"/>
<path d="M6797 4333 c-4 -3 -7 -24 -7 -45 l0 -38 45 0 45 0 0 45 0 45 -38 0
c-21 0 -42 -3 -45 -7z"/>
<path d="M6997 4333 c-4 -3 -7 -23 -7 -44 0 -32 3 -37 28 -41 53 -7 62 0 62
48 l0 44 -38 0 c-21 0 -42 -3 -45 -7z"/>
<path d="M7180 4295 l0 -45 45 0 45 0 0 45 0 45 -45 0 -45 0 0 -45z"/>
<path d="M7380 4295 l0 -45 40 0 40 0 0 45 0 45 -40 0 -40 0 0 -45z"/>
<path d="M6800 4105 l0 -45 40 0 40 0 0 45 0 45 -40 0 -40 0 0 -45z"/>
<path d="M6990 4105 l0 -45 45 0 45 0 0 45 0 45 -45 0 -45 0 0 -45z"/>
<path d="M7180 4104 l0 -45 43 3 c42 3 42 3 45 46 l3 42 -45 0 -46 0 0 -46z"/>
<path d="M7382 4108 c3 -43 3 -43 45 -46 l42 -3 -2 45 -2 46 -43 0 -43 0 3
-42z"/>
<path d="M6800 3920 l0 -50 40 0 40 0 0 50 0 50 -40 0 -40 0 0 -50z"/>
<path d="M6990 3920 l0 -40 45 0 45 0 0 40 0 40 -45 0 -45 0 0 -40z"/>
<path d="M7180 3920 l0 -40 45 0 45 0 0 40 0 40 -45 0 -45 0 0 -40z"/>
<path d="M7380 3920 l0 -40 45 0 45 0 0 40 0 40 -45 0 -45 0 0 -40z"/>
<path d="M6996 3758 c-3 -13 -6 -35 -6 -50 0 -26 3 -28 45 -28 l45 0 0 45 c0
41 -2 45 -24 45 -13 0 -31 3 -39 6 -9 3 -17 -3 -21 -18z"/>
<path d="M7387 3774 c-4 -4 -7 -27 -7 -51 l0 -43 46 0 45 0 -3 48 c-3 46 -4
47 -38 50 -20 2 -39 0 -43 -4z"/>
<path d="M6800 3725 l0 -45 40 0 40 0 0 45 0 45 -40 0 -40 0 0 -45z"/>
<path d="M7180 3725 l0 -45 45 0 45 0 0 45 0 45 -45 0 -45 0 0 -45z"/>
<path d="M6997 3583 c-4 -3 -7 -26 -7 -50 l0 -43 45 0 45 0 0 50 0 50 -38 0
c-21 0 -42 -3 -45 -7z"/>
<path d="M7382 3538 c3 -56 4 -56 76 -49 8 1 12 18 12 51 l0 50 -46 0 -45 0 3
-52z"/>
<path d="M6800 3535 l0 -45 40 0 40 0 0 45 0 45 -40 0 -40 0 0 -45z"/>
<path d="M7180 3536 c0 -39 3 -45 26 -50 48 -12 64 1 64 50 l0 44 -45 0 -45 0
0 -44z"/>
<path d="M6800 3340 l0 -50 40 0 40 0 0 50 0 50 -40 0 -40 0 0 -50z"/>
<path d="M6992 3343 l3 -48 43 -3 42 -3 0 50 0 51 -46 0 -45 0 3 -47z"/>
<path d="M7180 3340 l0 -50 45 0 45 0 0 50 0 50 -45 0 -45 0 0 -50z"/>
<path d="M7380 3340 l0 -50 45 0 45 0 0 50 0 50 -45 0 -45 0 0 -50z"/>
<path d="M6807 3193 c-4 -3 -7 -25 -7 -49 0 -44 10 -54 56 -54 22 0 24 3 24
55 l0 55 -33 0 c-19 0 -37 -3 -40 -7z"/>
<path d="M7003 3193 c-8 -3 -13 -23 -13 -53 l0 -49 48 3 c26 1 46 6 45 9 -2 4
-3 27 -3 51 0 43 -1 44 -32 44 -18 0 -39 -3 -45 -5z"/>
<path d="M7208 3193 c-26 -4 -28 -8 -28 -49 l0 -44 45 0 45 0 0 44 c0 31 -5
46 -16 50 -9 3 -16 5 -17 5 -1 -1 -14 -4 -29 -6z"/>
<path d="M7389 3189 c-11 -7 -7 -67 6 -88 3 -6 22 -10 41 -9 34 2 34 3 34 49
0 46 -1 47 -35 51 -19 2 -40 1 -46 -3z"/>
<path d="M6813 2933 c-8 -3 -13 -23 -13 -49 l0 -44 40 0 40 0 0 44 c0 37 -4
45 -22 50 -26 6 -28 6 -45 -1z"/>
<path d="M7028 2933 c-34 -4 -38 -7 -38 -33 0 -49 9 -60 51 -60 l39 0 0 50 c0
28 -3 49 -7 48 -5 -1 -25 -3 -45 -5z"/>
<path d="M7184 2916 c-3 -8 -4 -27 -2 -43 3 -24 8 -28 37 -31 39 -4 51 9 51
56 0 31 -1 32 -40 32 -26 0 -43 -5 -46 -14z"/>
<path d="M6800 2710 l0 -40 40 0 40 0 0 40 0 40 -40 0 -40 0 0 -40z"/>
<path d="M6989 2735 c-5 -62 -6 -60 44 -63 l47 -3 0 40 0 41 -45 0 c-33 0 -45
-4 -46 -15z"/>
<path d="M7180 2709 l0 -40 43 3 c41 3 42 4 45 41 l3 37 -45 0 -46 0 0 -41z"/>
<path d="M6420 2535 l0 -45 45 0 45 0 0 45 0 45 -45 0 -45 0 0 -45z"/>
<path d="M6608 2558 c-8 -53 2 -68 43 -68 l39 0 0 45 0 45 -39 0 c-33 0 -40
-4 -43 -22z"/>
<path d="M6997 2573 c-4 -3 -7 -24 -7 -45 l0 -38 45 0 45 0 0 45 0 45 -38 0
c-21 0 -42 -3 -45 -7z"/>
<path d="M6798 2531 c4 -36 6 -39 38 -43 19 -2 37 -2 39 1 3 2 5 22 5 43 l0
38 -43 0 -43 0 4 -39z"/>
<path d="M6645 2382 l-40 -3 3 -47 c4 -46 5 -47 38 -50 40 -2 47 8 42 64 -3
39 -3 39 -43 36z"/>
<path d="M6807 2383 c-2 -5 -5 -27 -6 -50 l-3 -43 39 0 39 0 3 50 2 50 -35 0
c-19 0 -37 -3 -39 -7z"/>
<path d="M6997 2383 c-10 -9 -9 -93 1 -93 22 1 77 74 67 90 -7 11 -58 14 -68
3z"/>
<path d="M6418 2335 c-3 -47 2 -54 42 -50 14 1 31 3 38 4 7 1 12 17 12 46 l0
45 -44 0 -44 0 -4 -45z"/>
<path d="M6427 2183 c-4 -3 -7 -26 -7 -50 l0 -43 45 0 45 0 0 50 0 50 -38 0
c-21 0 -42 -3 -45 -7z"/>
<path d="M6610 2145 l0 -45 40 0 40 0 0 45 0 45 -40 0 -40 0 0 -45z"/>
<path d="M6800 2150 c0 -26 5 -40 13 -40 23 0 54 29 59 55 5 23 3 25 -33 25
-39 0 -39 0 -39 -40z"/>
<path d="M6628 1993 c-13 -3 -18 -15 -18 -40 0 -19 3 -33 8 -31 4 3 22 10 40
17 20 8 32 20 32 32 0 10 -4 19 -9 19 -5 0 -15 2 -23 4 -7 2 -21 2 -30 -1z"/>
<path d="M6420 1940 l0 -50 40 0 40 0 0 50 0 50 -40 0 -40 0 0 -50z"/>
<path d="M6230 1754 l0 -45 38 3 c36 3 37 4 40 46 l3 42 -40 0 -41 0 0 -46z"/>
</g>
</svg>
